<svg width="20" height="20" viewBox="0 0 20 20" fill="none" xmlns="http://www.w3.org/2000/svg">
<path fill-rule="evenodd" clip-rule="evenodd" d="M10 20C15.5228 20 20 15.5228 20 10C20 4.47715 15.5228 0 10 0C4.47715 0 0 4.47715 0 10C0 15.5228 4.47715 20 10 20ZM9.13336 4.96666C9.13336 4.50643 9.50645 4.13333 9.96669 4.13333C10.4269 4.13333 10.8 4.50643 10.8 4.96666V14.9667C10.8 15.4269 10.4269 15.8 9.96669 15.8C9.50645 15.8 9.13336 15.4269 9.13336 14.9667V4.96666ZM11.8667 7.5C11.8667 7.03976 12.2398 6.66666 12.7 6.66666C13.1603 6.66666 13.5334 7.03976 13.5334 7.5V12.4333C13.5334 12.8936 13.1603 13.2667 12.7 13.2667C12.2398 13.2667 11.8667 12.8936 11.8667 12.4333V7.5ZM7.23335 6.66666C6.77312 6.66666 6.40002 7.03976 6.40002 7.5V12.4333C6.40002 12.8936 6.77312 13.2667 7.23335 13.2667C7.69359 13.2667 8.06669 12.8936 8.06669 12.4333V7.5C8.06669 7.03976 7.69359 6.66666 7.23335 6.66666ZM14.6 9.1C14.6 8.63976 14.9731 8.26666 15.4334 8.26666C15.8936 8.26666 16.2667 8.63976 16.2667 9.1V10.7667C16.2667 11.2269 15.8936 11.6 15.4334 11.6C14.9731 11.6 14.6 11.2269 14.6 10.7667V9.1ZM4.50002 8.26666C4.03978 8.26666 3.66669 8.63976 3.66669 9.1V10.7667C3.66669 11.2269 4.03978 11.6 4.50002 11.6C4.96026 11.6 5.33335 11.2269 5.33335 10.7667V9.1C5.33335 8.63976 4.96026 8.26666 4.50002 8.26666Z" fill="white"/>
</svg>
